<svg width="112" height="56" viewBox="0 0 112 56" fill="none" xmlns="http://www.w3.org/2000/svg">
<path d="M22.3013 25.5216C34.7129 26.419 44.5335 24.3995 50.5946 22.6705C60.6631 19.7975 67.3725 15.7193 68.7572 14.8634C74.8366 11.1051 79.2982 6.99884 82.3287 3.78026C82.7732 3.30772 83.1139 2.74239 83.2958 2.11968C83.4545 1.57999 83.507 0.967044 83.1725 0.534806C82.8526 0.119662 82.3116 0.0464026 82.0955 0.0170984C79.7243 -0.304028 75.9685 3.99637 75.3946 4.66427L62.3517 3.11236L60.6851 5.06598L69.3042 9.31754L64.248 14.3164L59.3065 13.2822L58.2723 14.7767C59.0574 15.1479 59.8426 15.5191 60.6277 15.8902C57.0794 17.9708 52.4395 20.2248 46.7692 21.8927C36.7251 24.8476 27.9485 24.6424 22.3025 24.0283V25.5228L22.3013 25.5216Z" fill="#00BCD1"/>
<path d="M5.88284 31.9358H0C2.88037 39.7796 5.76074 47.6221 8.63989 55.4659H14.2419L22.861 31.9358H17.1943C15.2724 37.5854 13.3518 43.2363 11.4299 48.8859C9.58007 43.2363 7.73146 37.5854 5.88162 31.9358H5.88284Z" fill="#00BCD1"/>
<path d="M31.3093 31.9357H25.7927V55.4658H31.3093V31.9357Z" fill="#00BCD1"/>
<path d="M48.7199 31.9357H43.2034L34.4121 55.4646H39.842L41.7382 50.379L50.444 50.2936L52.1669 55.4646H57.5967L48.7199 31.9357ZM43.3182 46.1849C44.2144 43.5328 45.1094 40.8796 46.0044 38.2263C46.9092 40.8796 47.8152 43.5328 48.7199 46.1849H43.3182Z" fill="#00BCD1"/>
<path d="M68.5432 31.9358V45.5696C68.5432 46.2485 68.5761 46.9261 68.5749 47.6038C68.5749 48.2131 68.603 48.8907 68.3808 49.4683C68.0255 50.3914 67.078 51.0996 66.0645 50.9982C64.9497 50.8871 63.9912 49.7992 64.0608 48.4842C62.3942 48.9726 60.7287 49.461 59.062 49.9494C59.7934 53.5452 63.0132 56.0996 66.603 55.997C68.5786 55.9409 70.4028 55.0862 71.7288 53.7162C73.0548 52.3462 73.713 50.5611 73.713 48.6966V31.9346H68.542L68.5432 31.9358Z" fill="#00BCD1"/>
<path d="M84.919 31.9357H79.4025V55.4658H84.919V31.9357Z" fill="#00BCD1"/>
<path d="M102.243 31.9357H96.7262L87.9349 55.4646H93.2793L95.1756 50.5524H103.795L105.432 55.4646H111.206L102.243 31.9357ZM96.7262 46.0774C97.675 43.4608 98.6225 40.8442 99.5712 38.2263C100.433 40.8442 101.295 43.4608 102.156 46.0774H96.7262Z" fill="#00BCD1"/>
</svg>
