<svg width="33" height="22" viewBox="0 0 33 22" fill="none" xmlns="http://www.w3.org/2000/svg">
<path d="M1.22222 0H31.7778C32.1019 0 32.4128 0.12877 32.642 0.357981C32.8712 0.587192 33 0.898069 33 1.22222V7.33333H0V1.22222C0 0.898069 0.128769 0.587192 0.357981 0.357981C0.587192 0.12877 0.898069 0 1.22222 0Z" fill="#52575D"/>
<path d="M0 7.33398H33V14.6673H0V7.33398Z" fill="#EF5361"/>
<path d="M0 14.668H33V20.7791C33 21.1032 32.8712 21.4141 32.642 21.6433C32.4128 21.8725 32.1019 22.0013 31.7778 22.0013H1.22222C0.898069 22.0013 0.587192 21.8725 0.357981 21.6433C0.128769 21.4141 0 21.1032 0 20.7791V14.668Z" fill="#FEC502"/>
</svg>
